<svg width="40" height="40" viewBox="0 0 400 300" xmlns="http://www.w3.org/2000/svg">
        <ellipse cx="200" cy="180" rx="80" ry="50" fill="#4F5B93" stroke="#2E3A5F" stroke-width="2"/>

        <ellipse cx="200" cy="120" rx="60" ry="45" fill="#4F5B93" stroke="#2E3A5F" stroke-width="2"/>

        <ellipse cx="160" cy="110" rx="25" ry="35" fill="#6C7AB8" stroke="#2E3A5F" stroke-width="2" transform="rotate(-20 160 110)"/>
        <ellipse cx="240" cy="110" rx="25" ry="35" fill="#6C7AB8" stroke="#2E3A5F" stroke-width="2" transform="rotate(20 240 110)"/>

        <ellipse cx="160" cy="110" rx="15" ry="25" fill="#8A96D1" transform="rotate(-20 160 110)"/>
        <ellipse cx="240" cy="110" rx="15" ry="25" fill="#8A96D1" transform="rotate(20 240 110)"/>

        <path d="M 200 140 Q 220 160 210 180 Q 200 200 185 210 Q 170 220 160 240"
              fill="none" stroke="#2E3A5F" stroke-width="8" stroke-linecap="round"/>
        <circle cx="160" cy="240" r="6" fill="#4F5B93" stroke="#2E3A5F" stroke-width="2"/>

        <circle cx="185" cy="110" r="8" fill="white"/>
        <circle cx="215" cy="110" r="8" fill="white"/>
        <circle cx="185" cy="110" r="5" fill="black"/>
        <circle cx="215" cy="110" r="5" fill="black"/>

        <circle cx="187" cy="108" r="2" fill="white"/>
        <circle cx="217" cy="108" r="2" fill="white"/>

        <ellipse cx="170" cy="220" rx="12" ry="18" fill="#4F5B93" stroke="#2E3A5F" stroke-width="2"/>
        <ellipse cx="200" cy="225" rx="12" ry="18" fill="#4F5B93" stroke="#2E3A5F" stroke-width="2"/>
        <ellipse cx="230" cy="220" rx="12" ry="18" fill="#4F5B93" stroke="#2E3A5F" stroke-width="2"/>

        <path d="M 280 180 Q 300 185 295 200"
              fill="none" stroke="#2E3A5F" stroke-width="4" stroke-linecap="round"/>


        <ellipse cx="205" cy="235" rx="70" ry="8" fill="black" opacity="0.2"/>
    </svg>