<svg width="20" height="20" xmlns="http://www.w3.org/2000/svg" xmlns:svg="http://www.w3.org/2000/svg" version="1.1" xml:space="preserve">
 <g class="layer">
  <title>Layer 1</title>
     <g id="svg_2" transform="translate(0.032156 0.0959156) scale(1.24164 1.24164) translate(-0.032156 -0.0959156) translate(0 0.0551876) matrix(0.141556 0 0 0.141556 -6.11138 -3.92002)">
   <path d="m155.95,84.45c0,30.97 -25.11,56.08 -56.08,56.08c-30.98,0 -56.08,-25.11 -56.08,-56.08c0,-30.97 25.1,-56.08 56.08,-56.08c30.97,0 56.08,25.11 56.08,56.08z" id="svg_3"/>
         <path d="m124.39,49.12c-5.7,0.19 -10.67,3.34 -14.37,7.68c-4.1,4.76 -6.83,10.41 -8.8,16.18c-3.51,-2.88 -6.22,-6.61 -11.86,-8.23c-4.36,-1.26 -8.94,-0.74 -13.15,2.39c-1.99,1.49 -3.36,3.74 -4.02,5.86c-1.69,5.5 1.78,10.4 3.36,12.15l3.45,3.7c0.7,0.72 2.42,2.61 1.58,5.31c-0.9,2.95 -4.45,4.85 -8.09,3.74c-1.63,-0.5 -3.96,-1.71 -3.44,-3.42c0.21,-0.7 0.71,-1.22 0.98,-1.82c0.25,-0.52 0.37,-0.91 0.44,-1.14c0.67,-2.17 -0.24,-4.99 -2.57,-5.71c-2.17,-0.67 -4.39,-0.14 -5.25,2.65c-0.98,3.18 0.54,8.94 8.68,11.45c9.54,2.93 17.6,-2.26 18.74,-9.03c0.72,-4.24 -1.19,-7.39 -4.7,-11.44l-2.86,-3.16c-1.73,-1.73 -2.32,-4.68 -0.53,-6.95c1.51,-1.91 3.66,-2.72 7.19,-1.77c5.15,1.4 7.44,4.97 11.27,7.86c-1.58,5.18 -2.61,10.39 -3.55,15.05l-0.57,3.49c-2.74,14.35 -4.83,22.23 -10.26,26.76c-1.09,0.77 -2.65,1.94 -5.01,2.02c-1.24,0.04 -1.64,-0.81 -1.65,-1.18c-0.03,-0.87 0.7,-1.27 1.18,-1.66c0.73,-0.39 1.83,-1.05 1.75,-3.15c-0.08,-2.49 -2.13,-4.64 -5.11,-4.54c-2.23,0.07 -5.62,2.17 -5.5,6.01c0.14,3.97 3.83,6.94 9.41,6.75c2.97,-0.1 9.63,-1.31 16.18,-9.11c7.63,-8.93 9.77,-19.17 11.38,-26.67l1.79,-9.89c0.99,0.11 2.06,0.2 3.22,0.22c9.5,0.2 14.25,-4.72 14.32,-8.3c0.05,-2.17 -1.42,-4.3 -3.48,-4.25c-1.47,0.04 -3.32,1.02 -3.76,3.06c-0.43,1.99 3.03,3.8 0.32,5.55c-1.92,1.24 -5.36,2.12 -10.21,1.41l0.88,-4.87c1.8,-9.24 4.02,-20.6 12.44,-20.88c0.62,-0.03 2.86,0.02 2.91,1.51c0.01,0.49 -0.11,0.62 -0.69,1.76c-0.59,0.88 -0.81,1.64 -0.78,2.5c0.08,2.36 1.87,3.91 4.47,3.82c3.47,-0.12 4.47,-3.5 4.41,-5.23c-0.15,-4.09 -4.45,-6.67 -10.14,-6.48z" fill="#FFFFFF" id="svg_4"/>
  </g>
 </g>
</svg>